<?xml version="1.0" standalone="no"?>
<!DOCTYPE svg PUBLIC "-//W3C//DTD SVG 20010904//EN"
 "http://www.w3.org/TR/2001/REC-SVG-20010904/DTD/svg10.dtd">
<svg version="1.0" xmlns="http://www.w3.org/2000/svg"
 width="500.000000pt" height="500.000000pt" viewBox="0 0 500.000000 500.000000"
 preserveAspectRatio="xMidYMid meet">

<g transform="translate(0.000000,500.000000) scale(0.100000,-0.100000)"
fill="#000000" stroke="none">
<path d="M870 2735 l0 -1625 1625 0 1625 0 0 1625 0 1625 -1625 0 -1625 0 0
-1625z m890 1550 c7 -8 10 -18 7 -22 -4 -3 -1 -15 5 -27 7 -11 11 -33 9 -48
-2 -19 2 -28 11 -28 26 0 47 25 50 59 4 44 22 50 37 14 17 -42 -8 -148 -35
-148 -12 0 -20 8 -22 22 -3 20 -6 21 -23 12 -11 -6 -30 -20 -41 -31 -20 -20
-22 -20 -34 -4 -9 12 -10 26 -3 44 5 15 13 48 18 75 8 47 8 47 -18 47 -15 0
-34 -6 -43 -12 -21 -18 -61 -117 -54 -135 9 -23 -3 -34 -25 -23 -23 13 -25 56
-4 107 19 45 20 43 -15 43 -32 0 -63 36 -38 44 81 26 201 32 218 11z m579 -11
c42 -53 12 -105 -68 -119 -35 -6 -40 -10 -46 -41 -5 -29 -10 -35 -28 -32 -19
3 -22 10 -23 58 -1 42 4 65 23 98 29 49 46 61 90 62 22 0 38 -8 52 -26z m-289
-29 c10 -12 10 -16 -1 -20 -8 -3 -32 -11 -54 -19 -33 -12 -36 -15 -15 -15 30
-1 57 -17 47 -27 -4 -4 -23 -10 -44 -13 -20 -3 -38 -12 -41 -20 -4 -11 4 -13
41 -8 49 7 67 -4 47 -28 -8 -10 -31 -15 -67 -15 -46 0 -55 3 -62 23 -6 14 -4
31 5 48 7 15 12 39 11 55 -2 26 2 30 43 41 61 16 76 15 90 -2z m480 -32 c0
-34 -24 -76 -61 -107 -63 -53 -116 -15 -103 74 8 56 12 64 30 49 8 -6 14 -29
14 -50 0 -28 4 -39 15 -39 24 0 53 36 65 80 9 35 14 39 26 30 8 -7 14 -23 14
-37z m117 25 c33 -31 30 -64 -9 -88 -22 -13 -28 -21 -17 -24 60 -22 70 -28 67
-39 -7 -19 -40 -19 -80 1 -30 16 -38 17 -42 6 -10 -26 -36 -16 -36 14 0 45 15
85 46 120 34 38 40 39 71 10z m180 10 c4 -7 8 -19 9 -26 2 -8 10 -29 19 -48
28 -59 -18 -99 -105 -92 -78 6 -79 64 -3 136 48 44 66 51 80 30z m212 -16 c17
-41 -8 -147 -35 -147 -12 0 -20 8 -22 22 -3 20 -6 21 -23 12 -11 -6 -30 -20
-41 -31 -20 -20 -22 -20 -33 -4 -10 13 -10 26 1 63 8 25 14 56 14 69 0 13 5
26 11 30 16 9 34 -25 30 -58 -3 -30 8 -35 40 -18 13 7 19 21 19 44 0 53 21 63
39 18z m87 3 c3 -13 1 -39 -5 -56 -6 -18 -11 -47 -11 -66 0 -28 -4 -34 -17
-31 -15 3 -18 14 -17 70 2 91 34 145 50 83z m213 8 c9 -17 10 -17 29 0 27 25
49 12 57 -33 4 -21 13 -41 21 -44 17 -6 10 -52 -11 -75 -16 -17 -49 -6 -42 13
4 10 -4 15 -25 18 -24 4 -31 0 -39 -19 -9 -25 -34 -31 -42 -10 -2 6 4 28 13
47 10 19 21 45 25 58 6 22 4 23 -27 20 -27 -2 -36 -10 -52 -43 -11 -22 -20
-53 -20 -69 -1 -38 -22 -45 -37 -12 -9 20 -8 33 5 66 20 50 20 52 -1 49 -34
-3 -43 1 -43 20 0 16 8 21 43 24 106 9 136 7 146 -10z m-825 -235 c17 -34 43
-66 73 -88 89 -67 136 -115 155 -158 15 -34 23 -42 36 -37 9 4 33 12 52 17 19
5 49 26 67 46 32 36 32 36 33 12 0 -31 21 -62 72 -108 51 -46 72 -113 49 -154
-21 -37 -34 -35 -26 5 6 32 6 32 -9 7 -8 -14 -13 -27 -11 -30 1 -3 -6 -14 -16
-24 -11 -11 -19 -14 -19 -8 0 7 -15 12 -36 12 -31 0 -35 2 -29 21 6 18 4 19
-12 9 -15 -10 -27 -9 -57 4 -77 32 -59 15 31 -29 50 -24 105 -57 123 -71 26
-22 33 -25 41 -13 5 8 7 19 5 24 -6 20 51 101 93 130 l43 30 156 0 c87 0 171
4 188 9 l32 8 -29 -57 c-25 -51 -29 -69 -29 -146 0 -113 -14 -178 -50 -228
l-29 -39 26 -7 c15 -3 41 -22 59 -42 l33 -36 12 27 c7 14 16 26 20 26 9 0 -16
-77 -31 -96 -8 -9 1 -18 36 -34 38 -19 56 -38 99 -104 64 -99 94 -128 164
-159 l55 -24 -35 -12 c-68 -24 -106 -58 -159 -145 -52 -86 -96 -125 -160 -141
-22 -5 -25 -11 -25 -52 -1 -38 -6 -50 -32 -73 -17 -15 -37 -30 -44 -32 -12 -5
-12 -9 -1 -28 29 -48 44 -109 51 -211 6 -70 15 -121 29 -152 l20 -46 -91 2
c-51 1 -127 -2 -169 -7 -124 -14 -189 21 -240 129 -13 28 -28 49 -33 48 -14
-4 -13 -23 1 -52 7 -13 10 -31 7 -40 -3 -12 -1 -11 11 3 31 39 18 -13 -24 -93
-22 -42 -47 -94 -55 -115 l-15 -39 -23 20 c-12 12 -41 30 -64 42 -23 11 -44
25 -48 31 -12 20 -23 9 -29 -29 -7 -47 -42 -90 -105 -133 -63 -43 -109 -86
-138 -132 l-25 -40 -18 36 c-29 60 -45 77 -127 137 -91 67 -123 106 -123 150
l0 31 -42 -20 c-24 -10 -56 -22 -71 -25 -19 -4 -27 -10 -23 -20 3 -9 0 -12 -9
-9 -16 7 -112 145 -126 182 l-10 25 -32 -31 c-38 -37 -94 -62 -139 -62 -17 0
-69 5 -115 12 -61 9 -97 9 -135 1 -29 -6 -54 -9 -56 -8 -2 2 4 18 13 36 11 20
21 75 26 143 10 119 20 161 51 216 16 27 17 35 6 39 -7 2 -28 19 -45 37 -28
27 -33 40 -33 77 0 44 -1 46 -37 58 -57 18 -83 42 -143 132 -49 73 -62 85
-118 113 l-62 31 41 19 c75 33 115 70 145 131 35 71 88 131 131 150 l32 13
-18 32 c-10 18 -22 47 -25 63 l-7 30 21 -33 20 -33 39 41 c23 24 47 40 61 40
l24 0 -26 28 c-49 52 -61 90 -68 219 -6 99 -12 131 -34 178 l-26 57 28 -8 c15
-5 97 -9 182 -9 176 0 192 -5 255 -77 21 -24 34 -37 30 -29 -12 21 -7 107 8
143 8 18 31 53 51 76 24 30 36 54 36 75 l1 32 37 -42 c28 -33 45 -43 67 -43
17 0 43 -7 59 -15 15 -8 29 -15 31 -15 1 0 8 19 16 42 14 44 53 88 153 172 32
27 67 68 79 92 11 24 22 44 23 44 1 0 13 -24 28 -52z m530 -2622 c16 4 26 2
26 -5 0 -6 17 -11 39 -11 86 0 96 -34 24 -80 l-47 -30 36 0 c35 0 39 3 70 62
33 61 58 85 58 53 0 -12 4 -13 18 -7 48 25 112 23 112 -4 0 -10 6 -11 30 -2
17 5 36 8 43 5 7 -3 37 -1 66 5 36 6 57 6 64 -1 5 -5 23 -7 38 -4 18 3 29 1
29 -6 0 -6 -4 -11 -10 -11 -13 0 -37 -38 -45 -72 -6 -23 -4 -26 14 -21 14 4
25 19 33 47 16 55 25 66 59 66 22 0 30 -6 35 -25 6 -24 7 -24 19 -8 18 25 26
14 34 -49 7 -52 8 -52 14 -18 4 19 8 46 9 60 2 14 8 23 13 20 20 -10 -8 -130
-30 -130 -8 0 -18 12 -22 28 l-7 27 -6 -25 c-9 -37 -36 -33 -32 5 l3 30 -21
-33 c-24 -39 -46 -49 -72 -33 -14 9 -28 9 -58 0 -44 -13 -63 -6 -38 14 8 6 21
27 27 46 14 42 14 41 -4 41 -8 0 -15 5 -15 10 0 6 -7 10 -15 10 -18 0 -30 -27
-39 -92 -10 -69 -31 -76 -23 -8 7 57 -3 80 -33 80 -14 0 -40 -42 -40 -65 0 -1
11 0 24 2 44 9 36 -15 -11 -31 -67 -23 -81 -21 -57 7 11 12 25 38 31 58 16 57
-18 44 -71 -28 -24 -33 -49 -64 -55 -68 -15 -9 -26 24 -12 38 14 14 15 97 0
97 -7 0 -8 -13 -4 -39 5 -28 3 -40 -8 -44 -8 -3 -17 -19 -20 -36 -7 -34 -27
-42 -27 -11 0 22 -10 26 -27 9 -11 -11 -37 -3 -29 9 2 4 -20 8 -50 8 -33 1
-54 -3 -54 -9 0 -7 -3 -8 -10 -1 -7 7 -5 28 4 63 12 46 12 51 -2 46 -8 -3 -19
0 -23 6 -7 13 -49 -107 -49 -142 0 -10 -4 -19 -10 -19 -17 0 -22 44 -10 94 6
27 9 50 7 53 -2 2 -16 -1 -30 -6 -47 -18 -41 8 6 29 25 11 53 32 62 47 16 24
19 25 30 9 9 -12 20 -15 39 -10z m-674 4 c0 -15 -98 -232 -110 -244 -15 -15
-12 14 5 64 19 54 19 53 -7 65 -29 13 -34 49 -13 82 20 31 43 17 26 -15 -32
-60 10 -47 45 14 24 40 54 59 54 34z m-1127 -39 c-22 -21 -60 -108 -50 -117 8
-8 93 52 101 71 3 9 6 25 6 35 0 35 63 42 81 8 10 -19 12 -20 21 -4 14 25 28
9 28 -32 0 -48 15 -73 23 -40 4 12 7 38 7 56 0 39 20 44 20 5 l1 -28 15 28
c21 38 34 25 34 -34 0 -66 17 -62 25 6 8 60 24 74 26 23 1 -27 3 -29 6 -8 6
29 30 49 61 50 31 0 28 -18 -5 -31 -21 -8 -24 -12 -13 -19 12 -7 9 -14 -13
-34 -36 -33 -35 -53 2 -27 16 12 34 21 39 21 6 0 20 16 32 35 23 37 54 60 69
51 5 -3 35 -1 66 5 39 7 61 7 68 0 5 -5 23 -7 38 -4 30 6 41 -10 14 -21 -14
-5 -23 -22 -39 -72 -5 -18 -3 -21 16 -17 17 3 27 17 38 50 18 53 34 61 38 18
1 -16 5 -41 8 -55 6 -23 7 -24 14 -5 5 11 9 37 9 58 1 45 21 50 21 5 l0 -33
18 30 c22 36 40 50 70 58 29 7 28 -5 -3 -40 -15 -18 -24 -23 -25 -14 0 11 -4
9 -15 -5 -20 -27 -19 -37 4 -24 25 13 58 13 66 0 3 -6 -4 -14 -16 -18 -15 -6
-27 -22 -33 -47 -12 -40 -36 -60 -36 -29 0 14 -3 15 -12 6 -9 -9 -15 -9 -26 1
-8 6 -22 12 -30 12 -9 0 -19 11 -22 25 l-6 25 -8 -29 c-6 -23 -11 -27 -29 -22
-12 3 -39 0 -59 -6 -40 -12 -65 -3 -36 13 10 5 22 26 27 46 9 30 7 38 -7 49
-32 25 -46 12 -60 -56 -17 -87 -37 -106 -27 -26 4 33 9 65 12 73 3 7 0 13 -7
13 -6 0 -9 -4 -6 -8 3 -5 -8 -9 -24 -9 -18 0 -27 4 -23 11 4 6 0 5 -9 -2 -19
-15 -41 -72 -28 -72 5 0 12 5 15 10 9 15 45 12 45 -4 0 -21 -50 -57 -74 -54
-13 2 -22 12 -24 26 l-3 22 -45 -26 -44 -26 0 29 c-1 24 -2 25 -11 11 -14 -24
-28 -22 -39 5 l-9 22 -7 -22 c-7 -27 -34 -31 -34 -6 0 15 -1 15 -13 -2 -17
-22 -37 -12 -38 18 0 19 -2 19 -11 -5 -5 -16 -17 -28 -25 -28 -12 0 -14 7 -9
33 l6 32 -25 -37 c-27 -39 -75 -54 -75 -23 0 11 -9 8 -37 -11 -52 -35 -77 -29
-81 18 -5 60 65 175 91 149 8 -8 5 -16 -10 -30z m1327 33 c0 -3 -12 -44 -26
-90 -20 -66 -29 -84 -44 -84 -10 0 -22 -4 -25 -10 -3 -5 -15 -10 -26 -10 -15
0 -19 7 -19 36 l0 37 -21 -27 c-23 -29 -56 -34 -66 -10 -7 18 14 112 30 132
16 20 65 15 72 -9 6 -19 8 -20 26 -3 23 21 23 23 -1 -55 -11 -35 -19 -66 -16
-68 7 -7 46 55 61 98 9 23 20 48 26 56 12 13 29 18 29 7z m253 -21 c15 -9 6
-71 -15 -103 -29 -41 -50 -55 -73 -46 -18 6 -18 15 1 99 5 23 3 27 -15 27 -24
0 -35 -21 -45 -92 -11 -71 -29 -73 -24 -2 3 56 2 59 -26 72 -24 12 -26 16 -15
28 27 26 175 38 212 17z"/>
<path d="M2246 4225 c-6 -16 -2 -18 32 -9 12 4 22 10 22 15 0 15 -48 10 -54
-6z"/>
<path d="M2600 4195 c-10 -12 -10 -15 3 -15 19 0 31 16 18 24 -5 3 -14 -1 -21
-9z"/>
<path d="M2751 4164 c-28 -35 -26 -44 7 -44 41 0 66 21 58 48 -10 30 -40 28
-65 -4z"/>
<path d="M3365 4170 c-3 -5 1 -10 9 -10 9 0 16 5 16 10 0 6 -4 10 -9 10 -6 0
-13 -4 -16 -10z"/>
<path d="M2465 3952 c-11 -20 -33 -49 -50 -64 -16 -15 -27 -29 -24 -32 8 -8
57 41 75 76 l16 32 15 -28 c23 -45 44 -64 64 -59 16 4 14 8 -13 31 -17 14 -38
38 -47 53 l-17 28 -19 -37z"/>
<path d="M2467 3876 c-4 -10 -1 -13 8 -9 8 3 12 9 9 14 -7 12 -11 11 -17 -5z"/>
<path d="M2567 3859 c7 -7 15 -10 18 -7 3 3 -2 9 -12 12 -14 6 -15 5 -6 -5z"/>
<path d="M2409 3813 c-13 -16 -12 -17 4 -4 9 7 17 15 17 17 0 8 -8 3 -21 -13z"/>
<path d="M2302 3781 c-8 -5 -12 -17 -10 -27 2 -15 5 -13 15 9 14 30 14 30 -5
18z"/>
<path d="M2525 3770 c10 -11 20 -20 23 -20 3 0 -3 9 -13 20 -10 11 -20 20 -23
20 -3 0 3 -9 13 -20z"/>
<path d="M2040 3770 c0 -5 5 -10 11 -10 5 0 7 5 4 10 -3 6 -8 10 -11 10 -2 0
-4 -4 -4 -10z"/>
<path d="M2889 3748 c-9 -18 -9 -20 4 -15 9 3 18 -1 21 -10 10 -25 18 -8 10
21 -8 32 -19 33 -35 4z"/>
<path d="M2088 3723 c7 -3 16 -2 19 1 4 3 -2 6 -13 5 -11 0 -14 -3 -6 -6z"/>
<path d="M2487 3724 c-4 -4 -7 -35 -7 -68 l1 -61 20 25 c16 18 19 33 15 59 -6
37 -18 56 -29 45z"/>
<path d="M2018 3709 c-10 -5 -18 -14 -18 -19 0 -17 15 -11 28 10 14 23 13 23
-10 9z"/>
<path d="M2274 3708 c-5 -7 -7 -28 -5 -46 2 -23 -1 -32 -8 -28 -6 4 -11 3 -11
-3 0 -5 5 -13 10 -16 6 -4 8 -11 5 -16 -4 -5 -1 -9 5 -9 6 0 8 -4 5 -10 -3 -5
-2 -10 3 -10 8 0 13 150 5 150 -1 0 -5 -6 -9 -12z"/>
<path d="M2705 3646 c0 -84 13 -77 22 11 4 39 3 54 -5 49 -5 -3 -12 -2 -14 4
-1 5 -3 -23 -3 -64z"/>
<path d="M2164 3703 c4 -8 2 -13 -5 -13 -7 0 -5 -8 6 -20 10 -11 25 -20 34
-19 10 0 12 2 3 6 -6 2 -10 8 -7 13 2 4 -5 16 -17 26 -12 11 -18 13 -14 7z"/>
<path d="M2301 3624 c0 -11 3 -14 6 -6 3 7 2 16 -1 19 -3 4 -6 -2 -5 -13z"/>
<path d="M2678 3605 c-2 -19 0 -35 4 -35 4 0 8 16 8 35 0 19 -2 35 -4 35 -2 0
-6 -16 -8 -35z"/>
<path d="M1951 3580 c-1 -28 3 -50 9 -50 12 0 13 69 1 88 -5 8 -8 -7 -10 -38z"/>
<path d="M2052 3600 c0 -14 2 -19 5 -12 2 6 2 18 0 25 -3 6 -5 1 -5 -13z"/>
<path d="M2378 3593 c6 -2 18 -2 25 0 6 3 1 5 -13 5 -14 0 -19 -2 -12 -5z"/>
<path d="M1695 3569 c-12 -18 2 -20 36 -5 l34 14 -32 1 c-17 1 -35 -4 -38 -10z"/>
<path d="M2235 3570 c-4 -7 -16 -9 -27 -6 -12 2 -27 -2 -35 -10 -18 -17 -33
-18 -34 -1 0 6 -4 2 -9 -10 -12 -28 -36 -30 -52 -3 -7 11 -20 20 -28 20 -13 0
-13 -1 0 -10 8 -5 11 -10 6 -10 -5 0 -1 -9 8 -19 17 -18 16 -20 -3 -26 -12 -3
-31 -3 -42 0 -15 5 -19 4 -15 -4 7 -11 -8 -15 -53 -13 -19 1 -22 -2 -17 -21 3
-12 6 -30 6 -39 0 -14 13 -9 59 26 33 23 89 56 125 72 36 16 66 32 66 35 0 4
8 5 18 3 19 -5 50 11 40 21 -3 4 -9 1 -13 -5z"/>
<path d="M3195 3554 c-26 -22 -27 -24 -5 -13 14 7 48 12 75 10 28 -1 64 3 80
8 l30 10 -37 -2 c-20 -1 -40 2 -44 6 -16 16 -70 6 -99 -19z"/>
<path d="M1500 3551 c5 -11 10 -32 10 -48 1 -25 2 -26 11 -10 6 10 8 29 5 42
-5 20 -3 22 17 19 20 -4 21 -4 2 5 -11 5 -28 10 -38 10 -14 1 -16 -3 -7 -18z"/>
<path d="M3445 3560 c-3 -5 -2 -10 4 -10 7 0 7 -8 2 -22 -5 -13 -6 -68 -2
-123 l6 -100 6 110 c3 61 9 120 14 133 5 17 4 22 -8 22 -9 0 -19 -4 -22 -10z"/>
<path d="M1801 3530 c19 -10 36 -14 37 -9 2 5 9 6 14 3 7 -4 8 -2 4 4 -4 6
-13 9 -21 5 -8 -3 -15 -1 -15 5 0 5 -12 10 -27 10 -26 0 -26 -1 8 -18z"/>
<path d="M2365 3541 c-219 -35 -425 -164 -545 -341 -68 -101 -110 -219 -131
-372 -49 -353 198 -754 541 -881 208 -77 446 -57 635 53 189 111 317 276 395
508 67 200 47 403 -61 612 -102 198 -279 339 -499 399 -83 23 -257 34 -335 22z
m329 -56 c76 -20 235 -97 261 -125 14 -16 3 -12 -38 14 -64 41 -71 43 -139 32
-34 -5 -50 -3 -59 7 -10 10 -22 12 -43 6 -28 -8 -77 8 -91 31 -9 14 5 12 35
-5 29 -17 76 -19 85 -5 3 6 15 10 26 10 10 0 19 -4 19 -10 0 -5 -8 -10 -17
-10 -10 0 -13 -3 -8 -9 6 -5 28 -6 50 -2 l40 7 -40 18 c-21 9 -70 24 -107 32
-65 15 -70 15 -95 -3 -88 -63 -87 -62 -137 -28 -20 14 -38 25 -40 25 -2 0 -23
-16 -47 -35 -51 -41 -69 -43 -116 -14 -24 15 -44 20 -66 16 -27 -5 -23 -1 19
19 28 13 66 26 85 29 22 4 15 -1 -21 -13 l-55 -18 43 -23 c41 -21 45 -21 68
-6 13 8 24 22 24 31 0 8 5 12 11 8 6 -3 22 -1 35 7 21 11 28 10 54 -9 40 -30
74 -28 112 8 l33 29 -59 1 c-54 0 -58 -2 -53 -21 4 -16 3 -18 -9 -8 -7 6 -11
15 -8 20 3 6 -25 8 -68 5 -52 -4 -65 -2 -43 4 46 14 291 4 359 -15z m-19 -35
c3 -5 1 -10 -4 -10 -6 0 -11 5 -11 10 0 6 2 10 4 10 3 0 8 -4 11 -10z m-560
-36 c-26 -20 -55 -36 -55 -30 0 5 63 46 70 46 3 -1 -4 -8 -15 -16z m72 -36
c-3 -8 -6 -5 -6 6 -1 11 2 17 5 13 3 -3 4 -12 1 -19z m521 -13 c202 -74 343
-214 408 -405 48 -143 53 -252 17 -400 -44 -185 -186 -363 -354 -447 -93 -46
-172 -63 -287 -63 -85 0 -115 5 -186 29 -198 66 -362 230 -438 437 -18 51 -21
81 -22 214 -1 144 1 160 26 228 37 102 82 173 159 251 73 74 146 121 235 152
94 33 132 38 254 35 94 -3 128 -9 188 -31z m132 25 c0 -5 -9 -10 -20 -10 -11
0 -20 5 -20 10 0 6 9 10 20 10 11 0 20 -4 20 -10z m-675 -31 c13 -5 -3 -8 -44
-6 l-65 2 -18 -50 c-25 -67 -50 -87 -106 -84 -46 3 -55 -3 -105 -71 -17 -24
-17 -24 0 8 24 44 116 146 156 173 l32 21 -29 -25 c-20 -17 -27 -31 -22 -42 4
-12 2 -16 -8 -12 -8 3 -24 -6 -37 -20 l-24 -26 39 6 c21 3 47 14 57 23 17 15
33 60 34 93 0 8 11 16 24 18 14 2 27 5 29 8 5 5 60 -5 87 -16z m786 -59 c19
-44 26 -50 58 -56 57 -9 61 -12 61 -43 0 -52 17 -78 68 -107 29 -16 48 -33 45
-40 -3 -10 -8 -9 -21 1 -9 8 -33 25 -52 37 -25 17 -40 37 -51 73 -15 45 -20
50 -62 62 -54 16 -62 25 -75 85 -12 59 1 53 29 -12z m-851 26 c0 -8 -5 -18
-11 -22 -14 -8 -33 11 -25 25 10 16 36 13 36 -3z m800 4 c0 -5 -7 -10 -15 -10
-8 0 -15 5 -15 10 0 6 7 10 15 10 8 0 15 -4 15 -10z m232 -154 c6 -11 -14 6
-44 39 -88 96 -117 137 -39 56 40 -40 77 -83 83 -95z m-217 124 c3 -5 -1 -10
-10 -10 -9 0 -13 5 -10 10 3 6 8 10 10 10 2 0 7 -4 10 -10z m-1007 -158 c-7
-15 -30 -36 -50 -47 -46 -24 -49 -32 -36 -82 12 -49 -8 -105 -44 -124 -23 -12
-23 -12 2 15 21 23 25 38 26 94 1 37 2 73 3 79 0 7 19 22 41 33 25 13 40 27
40 39 0 11 3 27 6 36 6 16 8 16 16 1 6 -10 4 -26 -4 -44z m1252 -12 c6 -11 8
-20 6 -20 -3 0 -10 9 -16 20 -6 11 -8 20 -6 20 3 0 10 -9 16 -20z m-1305 -90
c-5 -8 -11 -8 -17 -2 -6 6 -7 16 -3 22 5 8 11 8 17 2 6 -6 7 -16 3 -22z m-84
-32 c-5 -14 -17 -67 -26 -117 -10 -51 -19 -90 -22 -88 -6 6 14 119 33 186 8
29 17 51 20 48 2 -2 0 -16 -5 -29z m1391 -23 c-4 -42 -2 -47 34 -80 37 -34 38
-36 25 -68 -22 -56 -25 -71 -12 -63 13 9 41 -10 41 -28 0 -6 -5 -4 -10 4 -13
21 -48 21 -55 -1 -6 -19 42 -151 57 -157 4 -2 8 -11 8 -20 0 -13 -2 -14 -9 -3
-6 10 -13 11 -29 2 -43 -23 -64 -79 -46 -125 9 -24 20 -19 34 14 7 17 15 29
17 27 2 -3 -7 -29 -21 -58 -17 -39 -25 -48 -25 -31 -1 13 -8 36 -16 52 -21 40
-9 85 31 118 l33 28 -25 49 c-29 57 -29 101 1 177 l19 46 -32 30 c-32 30 -42
75 -26 116 10 26 12 18 6 -29z m96 -150 l1 -20 -9 20 c-5 11 -8 31 -8 45 l0
25 8 -25 c4 -14 8 -34 8 -45z m-1454 -32 c22 -64 20 -80 -14 -140 -38 -65 -48
-70 -15 -7 30 56 31 104 5 163 -24 52 -25 57 -6 42 8 -7 22 -33 30 -58z m1457
-159 l-10 -49 4 55 c3 30 6 80 7 110 l2 55 3 -61 c2 -34 -1 -83 -6 -110z
m-1538 66 c3 -39 2 -55 -3 -40 -8 25 -13 117 -6 109 2 -2 6 -33 9 -69z m28 33
c-12 -20 -14 -14 -5 12 4 9 9 14 11 11 3 -2 0 -13 -6 -23z m1462 -9 c-3 -9 0
-20 8 -25 9 -6 10 -9 2 -9 -6 0 -15 5 -18 10 -7 11 0 40 9 40 3 0 3 -7 -1 -16z
m-1476 -146 c-3 -7 -5 -2 -5 12 0 14 2 19 5 13 2 -7 2 -19 0 -25z m91 -68 c5
-14 6 -36 2 -50 -5 -22 -7 -19 -12 17 -3 23 -15 54 -27 69 -12 15 -21 32 -21
38 1 16 48 -45 58 -74z m-81 28 c-3 -8 -6 -5 -6 6 -1 11 2 17 5 13 3 -3 4 -12
1 -19z m38 -17 c3 -5 1 -12 -4 -15 -5 -3 -11 1 -15 9 -6 16 9 21 19 6z m82
-100 c0 -11 -5 -18 -9 -15 -4 3 -5 11 -1 19 7 21 12 19 10 -4z m-3 -48 c40
-19 71 -72 61 -104 -10 -29 -20 -14 -20 29 0 34 -4 39 -50 62 -27 14 -49 28
-47 33 1 4 2 15 3 25 0 13 2 12 9 -6 5 -12 25 -30 44 -39z m1287 3 c-6 -8 -25
-19 -41 -26 -19 -8 -32 -22 -36 -39 -4 -14 -13 -36 -20 -48 -15 -24 -34 -31
-34 -13 0 6 6 10 14 10 8 0 17 15 20 34 7 36 23 54 71 79 37 20 40 20 26 3z
m-61 -146 c-23 -27 -47 -53 -53 -57 -7 -4 10 19 37 50 27 31 51 57 53 57 3 0
-14 -22 -37 -50z m-1130 25 c0 -8 -7 -15 -15 -15 -8 0 -15 7 -15 15 0 8 7 15
15 15 8 0 15 -7 15 -15z m16 -45 c23 0 64 -42 83 -86 20 -43 21 -44 58 -38 45
7 68 -8 77 -51 l7 -30 -22 33 c-17 25 -28 32 -54 32 -51 0 -65 9 -85 56 -17
40 -73 85 -87 70 -9 -9 -42 13 -53 35 -11 20 -11 20 27 -1 21 -11 43 -20 49
-20z m1029 -9 c-27 -12 -47 -30 -60 -57 -34 -66 -45 -74 -90 -64 -50 11 -79
-3 -72 -36 2 -13 0 -21 -4 -18 -15 9 -10 41 8 55 9 8 39 14 67 14 46 0 52 2
65 30 26 56 70 93 111 94 8 0 -3 -8 -25 -18z m-875 -87 c0 -14 -3 -14 -15 -4
-10 9 -15 9 -15 1 0 -6 -4 -11 -10 -11 -5 0 -10 7 -10 15 0 9 9 15 25 15 16 0
25 -6 25 -16z m810 -28 c0 -2 -8 -10 -17 -17 -16 -13 -17 -12 -4 4 13 16 21
21 21 13z m-673 -48 c-3 -8 -6 -5 -6 6 -1 11 2 17 5 13 3 -3 4 -12 1 -19z
m560 16 c-3 -3 -12 -4 -19 -1 -8 3 -5 6 6 6 11 1 17 -2 13 -5z m-447 -63 l29
-28 31 18 c34 21 82 24 128 8 24 -8 38 -7 65 6 24 11 56 15 108 13 41 -1 83 1
94 5 11 5 5 0 -13 -11 -29 -16 -41 -17 -88 -8 -46 8 -60 7 -84 -7 -15 -9 -36
-17 -45 -17 -14 0 -13 -4 6 -20 14 -11 18 -19 11 -20 -7 0 -27 13 -45 30 -39
36 -91 40 -130 10 -33 -26 -45 -25 -70 6 -19 24 -25 26 -81 22 -57 -4 -59 -4
-31 8 49 21 84 17 115 -15z m-54 -29 c-9 -9 -37 8 -31 18 5 8 11 7 21 -1 8 -6
12 -14 10 -17z m159 -16 c0 -19 -3 -21 -17 -13 -15 10 -15 12 0 24 9 7 17 13
17 13 0 0 0 -11 0 -24z m49 16 c2 -4 -4 -8 -14 -8 -10 0 -16 4 -14 8 3 4 9 8
14 8 5 0 11 -4 14 -8z m43 -38 c-3 -3 -12 -4 -19 -1 -8 3 -5 6 6 6 11 1 17 -2
13 -5z"/>
<path d="M2330 3341 c-207 -56 -385 -237 -433 -441 -25 -106 -29 -162 -17
-250 34 -247 188 -439 426 -530 91 -35 243 -39 351 -10 186 50 340 192 412
380 100 258 41 526 -154 708 -70 66 -174 123 -270 147 -80 20 -233 18 -315 -4z
m306 -6 c223 -52 399 -228 455 -455 18 -74 16 -220 -4 -300 -49 -188 -170
-343 -328 -418 -99 -47 -162 -62 -267 -62 -158 0 -295 61 -418 184 -129 130
-184 264 -184 446 0 147 32 251 110 365 75 110 218 208 347 239 76 19 213 19
289 1z"/>
<path d="M2482 3242 c-33 -93 -36 -110 -24 -136 14 -32 56 -35 72 -7 15 30 12
62 -13 124 l-23 56 -12 -37z"/>
<path d="M2422 3102 c-4 -108 135 -128 154 -22 l7 35 -25 -35 c-18 -27 -32
-36 -59 -38 -43 -4 -66 18 -72 68 -4 33 -4 33 -5 -8z"/>
<path d="M2386 3094 c-27 -70 36 -154 114 -154 40 0 88 30 105 66 21 45 14 69
-8 27 -22 -42 -54 -63 -95 -63 -68 0 -122 58 -108 115 7 28 2 34 -8 9z"/>
<path d="M2344 3036 c-13 -69 22 -130 89 -155 100 -38 227 29 227 118 0 51
-15 68 -16 18 -1 -33 -8 -47 -37 -73 -63 -58 -152 -57 -215 1 -33 30 -37 39
-36 79 1 55 -3 59 -12 12z"/>
<path d="M2306 3014 c-9 -23 -7 -79 3 -107 51 -133 313 -143 374 -14 19 39 22
104 7 127 -6 10 -8 4 -4 -21 18 -113 -140 -205 -264 -153 -73 30 -122 103
-108 160 7 27 1 33 -8 8z"/>
<path d="M2149 2756 c-44 -12 -112 -47 -154 -80 -11 -9 11 -2 49 15 143 66
277 34 380 -91 25 -31 28 -32 21 -10 -21 74 -92 142 -171 166 -56 17 -65 17
-125 0z"/>
<path d="M2719 2756 c-85 -30 -141 -82 -159 -147 -9 -30 -8 -29 31 15 88 100
238 131 359 73 69 -33 77 -28 13 9 -99 59 -176 75 -244 50z"/>
<path d="M2455 2727 c-9 -33 8 -57 39 -57 28 0 46 18 46 46 0 30 -16 39 -23
14 -7 -27 -36 -25 -46 3 -9 22 -9 22 -16 -6z"/>
<path d="M2474 2588 c3 -24 9 -68 13 -98 6 -49 7 -52 14 -26 5 16 11 60 15 98
l7 68 -28 0 c-27 0 -27 -1 -21 -42z"/>
<path d="M2090 2575 c-46 -19 -93 -35 -105 -35 -20 -1 -20 -1 0 -16 11 -9 52
-32 90 -51 53 -27 86 -37 138 -41 62 -4 73 -2 132 28 l65 33 -24 31 c-33 43
-118 86 -170 86 -24 0 -76 -15 -126 -35z"/>
<path d="M2705 2595 c-38 -15 -115 -80 -115 -98 0 -4 29 -22 65 -39 57 -26 75
-30 128 -26 60 4 160 41 227 86 l25 16 -30 7 c-16 4 -57 19 -91 33 -78 33
-156 41 -209 21z"/>
<path d="M2410 2325 c0 -9 8 -18 18 -21 9 -3 29 -12 43 -19 22 -12 29 -12 45
0 10 8 26 15 35 15 9 0 22 7 29 15 20 24 -14 30 -49 9 -29 -17 -32 -17 -60 -1
-36 21 -61 22 -61 2z"/>
<path d="M2381 2209 c12 -24 71 -49 114 -49 40 0 81 18 108 48 l19 21 -125 -2
c-112 -2 -124 -4 -116 -18z"/>
<path d="M1670 3476 c0 -2 7 -6 15 -10 8 -3 15 -1 15 4 0 6 -7 10 -15 10 -8 0
-15 -2 -15 -4z"/>
<path d="M3225 3465 c-22 -8 -41 -15 -42 -15 -1 0 -11 -13 -23 -29 -14 -21
-17 -32 -9 -37 7 -4 9 -3 6 3 -10 15 64 63 120 78 40 11 43 13 18 14 -16 0
-48 -6 -70 -14z"/>
<path d="M1760 3430 c25 -21 50 -39 55 -39 6 -1 4 3 -3 8 -8 4 -13 12 -11 17
3 10 -58 54 -75 54 -6 0 9 -18 34 -40z"/>
<path d="M1875 3376 c-21 -54 -38 -63 -43 -21 -2 14 -7 23 -12 20 -5 -3 -6
-21 -3 -40 3 -19 3 -35 -1 -35 -3 0 -35 20 -72 45 -67 46 -82 54 -64 33 6 -7
19 -24 30 -37 12 -14 25 -21 35 -17 10 3 14 2 10 -5 -4 -6 2 -13 14 -16 23 -6
28 -19 9 -26 -7 -2 -5 -3 5 -2 21 4 22 -9 1 -29 -8 -9 -11 -16 -6 -16 5 0 21
17 35 38 15 21 45 55 67 77 22 21 40 49 40 60 0 39 -25 23 -45 -29z"/>
<path d="M3070 3373 c1 -4 26 -35 57 -68 42 -46 51 -52 37 -27 -11 19 -27 38
-36 43 -10 5 -18 16 -18 24 0 8 -9 19 -20 25 -11 6 -20 7 -20 3z"/>
<path d="M3275 3370 c-3 -5 -2 -10 4 -10 5 0 13 5 16 10 3 6 2 10 -4 10 -5 0
-13 -4 -16 -10z"/>
<path d="M1657 3279 c7 -7 15 -10 18 -7 3 3 -2 9 -12 12 -14 6 -15 5 -6 -5z"/>
<path d="M3198 3273 c6 -2 18 -2 25 0 6 3 1 5 -13 5 -14 0 -19 -2 -12 -5z"/>
<path d="M3248 3273 c7 -3 16 -2 19 1 4 3 -2 6 -13 5 -11 0 -14 -3 -6 -6z"/>
<path d="M1730 3179 c-19 -37 -20 -37 -56 -28 -54 15 -52 4 2 -15 26 -9 48
-15 49 -13 1 1 13 23 27 48 18 34 21 46 11 46 -8 0 -23 -17 -33 -38z"/>
<path d="M3216 3192 c-2 -4 2 -16 10 -27 12 -16 14 -17 14 -2 0 9 -5 17 -11
17 -5 0 -7 5 -4 10 3 6 4 10 1 10 -3 0 -7 -3 -10 -8z"/>
<path d="M3288 3193 c6 -2 18 -2 25 0 6 3 1 5 -13 5 -14 0 -19 -2 -12 -5z"/>
<path d="M3265 3120 c-16 -7 -17 -9 -3 -9 9 -1 20 4 23 9 7 11 7 11 -20 0z"/>
<path d="M1544 3108 c-7 -6 -26 -24 -43 -40 -17 -16 -28 -34 -25 -40 4 -6 13
0 21 15 16 31 42 47 76 47 14 0 27 7 31 15 4 11 -2 15 -22 15 -15 -1 -32 -6
-38 -12z"/>
<path d="M1628 3113 c6 -2 18 -2 25 0 6 3 1 5 -13 5 -14 0 -19 -2 -12 -5z"/>
<path d="M3315 3110 c-3 -6 1 -7 9 -4 18 7 21 14 7 14 -6 0 -13 -4 -16 -10z"/>
<path d="M3387 3109 c-33 -9 -57 -27 -57 -43 0 -6 6 -4 13 4 17 22 83 25 112
6 17 -11 26 -13 31 -4 4 6 3 8 -3 5 -11 -7 -31 11 -31 28 0 5 -6 11 -14 13 -9
2 -8 0 2 -7 13 -9 13 -11 -2 -11 -9 0 -18 4 -20 8 -1 5 -16 5 -31 1z"/>
<path d="M1671 3102 c-1 -7 4 -23 10 -34 9 -17 13 -18 20 -7 5 8 8 21 8 29 0
10 -3 8 -9 -5 -8 -19 -8 -19 -18 5 -6 14 -11 19 -11 12z"/>
<path d="M3277 3093 c-4 -3 -7 -11 -7 -17 0 -6 5 -5 12 2 6 6 9 14 7 17 -3 3
-9 2 -12 -2z"/>
<path d="M3495 3040 c3 -5 8 -10 11 -10 2 0 4 5 4 10 0 6 -5 10 -11 10 -5 0
-7 -4 -4 -10z"/>
<path d="M1600 3026 c0 -8 59 -34 64 -28 3 3 -6 11 -20 19 -26 13 -44 17 -44
9z"/>
<path d="M3328 3007 c-29 -11 -30 -26 -4 -89 11 -26 12 -27 41 -14 76 35 139
45 173 27 9 -5 26 -5 36 -2 18 7 17 9 -10 28 -22 16 -41 20 -82 17 -29 -2 -58
-7 -65 -11 -7 -4 -23 -6 -36 -4 -16 2 -21 -1 -15 -10 4 -7 -5 -4 -19 7 -34 25
-34 28 6 48 36 17 17 20 -25 3z"/>
<path d="M1578 2953 c12 -2 30 -2 40 0 9 3 -1 5 -23 4 -22 0 -30 -2 -17 -4z"/>
<path d="M1660 2952 c0 -7 -6 -12 -14 -12 -8 0 -17 -6 -19 -12 -4 -10 -8 -9
-17 2 -10 13 -11 13 -7 0 2 -8 14 -20 28 -27 23 -12 24 -10 31 20 3 17 5 34 2
36 -2 2 -4 -1 -4 -7z"/>
<path d="M1498 2923 c6 -2 18 -2 25 0 6 3 1 5 -13 5 -14 0 -19 -2 -12 -5z"/>
<path d="M1548 2923 c6 -2 18 -2 25 0 6 3 1 5 -13 5 -14 0 -19 -2 -12 -5z"/>
<path d="M3585 2911 c-4 -7 1 -8 12 -4 10 3 15 3 11 -2 -4 -4 2 -23 13 -42 11
-18 19 -38 17 -45 -2 -6 -14 5 -27 25 -24 40 -56 63 -65 48 -3 -5 6 -17 21
-27 15 -10 49 -41 75 -69 25 -28 64 -60 85 -70 21 -11 40 -23 43 -27 3 -4 11
-4 18 1 8 5 1 13 -22 23 -39 19 -95 83 -129 147 -24 46 -41 60 -52 42z"/>
<path d="M1558 2893 c7 -3 16 -2 19 1 4 3 -2 6 -13 5 -11 0 -14 -3 -6 -6z"/>
<path d="M1595 2880 c-3 -5 -11 -8 -16 -5 -22 14 -6 -30 22 -63 22 -24 27 -37
19 -42 -9 -5 -9 -9 -1 -14 16 -10 14 -26 -4 -26 -21 0 -19 -17 5 -30 19 -10
20 -7 22 60 1 38 2 77 2 86 1 21 -39 50 -49 34z"/>
<path d="M3427 2875 c-10 -7 -15 -15 -10 -18 5 -3 16 1 26 8 10 7 15 15 10 18
-5 3 -16 -1 -26 -8z"/>
<path d="M1370 2869 c0 -5 -5 -7 -10 -4 -6 4 -9 3 -8 -2 4 -15 -34 -78 -76
-122 -22 -25 -34 -40 -25 -33 9 6 18 10 21 7 2 -2 18 8 35 23 32 27 90 142 72
142 -5 0 -9 -5 -9 -11z"/>
<path d="M3334 2855 c-3 -8 -4 -20 -2 -27 3 -7 7 -1 10 15 6 29 1 36 -8 12z"/>
<path d="M3443 2803 c9 -2 25 -2 35 0 9 3 1 5 -18 5 -19 0 -27 -2 -17 -5z"/>
<path d="M3350 2770 c-13 -8 -12 -10 3 -10 9 0 17 5 17 10 0 12 -1 12 -20 0z"/>
<path d="M3564 2771 c3 -5 16 -11 28 -14 22 -6 22 -5 4 8 -22 17 -40 20 -32 6z"/>
<path d="M1530 2731 c0 -5 10 -11 23 -15 33 -9 37 -8 37 9 0 10 -10 15 -30 15
-16 0 -30 -4 -30 -9z"/>
<path d="M3375 2731 c-11 -5 -23 -7 -27 -4 -5 2 -8 -4 -8 -13 0 -10 3 -14 6
-11 4 3 26 -8 50 -25 24 -17 47 -29 50 -25 4 3 -10 16 -30 28 -38 22 -47 39
-21 39 8 0 15 5 15 10 0 12 -7 12 -35 1z"/>
<path d="M3498 2723 c7 -3 16 -2 19 1 4 3 -2 6 -13 5 -11 0 -14 -3 -6 -6z"/>
<path d="M1236 2664 c36 -23 65 -59 117 -146 9 -14 31 -36 49 -49 18 -13 27
-16 21 -8 -7 9 -11 19 -8 22 3 4 2 5 -1 3 -10 -7 -32 18 -27 31 5 13 -17 43
-64 88 -18 17 -33 36 -33 42 0 6 -18 18 -40 27 -57 23 -60 20 -14 -10z"/>
<path d="M3723 2669 c-34 -22 -67 -65 -55 -72 4 -3 26 17 50 44 24 27 42 49
40 49 -2 0 -17 -9 -35 -21z"/>
<path d="M1432 2670 c10 -6 42 -13 70 -15 51 -4 51 -4 13 5 -96 21 -101 22
-83 10z"/>
<path d="M3613 2649 c-24 -17 -43 -37 -43 -45 0 -20 1 -19 50 31 52 53 50 55
-7 14z"/>
<path d="M1360 2655 c0 -15 73 -97 104 -116 35 -21 46 -23 46 -9 0 6 -3 9 -7
9 -20 -3 -34 2 -28 11 3 6 -1 7 -9 4 -11 -4 -16 0 -16 11 0 9 -6 22 -13 28 -7
7 -27 25 -45 41 -18 17 -32 26 -32 21z"/>
<path d="M3332 2630 c0 -14 2 -19 5 -12 2 6 2 18 0 25 -3 6 -5 1 -5 -13z"/>
<path d="M1628 2590 c-10 -30 -16 -55 -15 -56 1 -2 12 5 24 14 18 14 20 23 15
56 l-7 39 -17 -53z"/>
<path d="M3335 2581 c-18 -7 -18 -9 7 -25 38 -25 85 -36 121 -29 32 7 97 40
97 51 0 3 -3 2 -7 -1 -3 -4 -12 -2 -20 5 -10 8 -12 8 -8 -4 3 -8 0 -15 -7 -16
-7 -1 -28 -5 -45 -8 -24 -5 -33 -3 -33 7 0 10 -13 13 -47 12 -36 -2 -43 -1
-28 6 25 12 -1 13 -30 2z"/>
<path d="M1498 2563 c6 -2 18 -2 25 0 6 3 1 5 -13 5 -14 0 -19 -2 -12 -5z"/>
<path d="M1414 2506 c11 -9 24 -16 30 -16 12 0 7 5 -24 19 -24 11 -24 11 -6
-3z"/>
<path d="M3327 2500 c-9 -11 -13 -20 -9 -20 4 0 15 9 25 20 9 11 13 20 9 20
-4 0 -15 -9 -25 -20z"/>
<path d="M3300 2460 c0 -5 5 -10 11 -10 5 0 7 5 4 10 -3 6 -8 10 -11 10 -2 0
-4 -4 -4 -10z"/>
<path d="M3378 2453 c7 -3 16 -2 19 1 4 3 -2 6 -13 5 -11 0 -14 -3 -6 -6z"/>
<path d="M1631 2433 c8 -9 6 -17 -5 -28 -9 -9 -16 -21 -16 -26 0 -5 -20 -8
-45 -5 -27 2 -45 0 -45 -6 0 -20 108 -3 133 20 13 12 26 20 28 18 3 -3 5 3 6
13 1 14 -7 20 -32 23 -27 3 -32 1 -24 -9z"/>
<path d="M1478 2433 c6 -2 18 -2 25 0 6 3 1 5 -13 5 -14 0 -19 -2 -12 -5z"/>
<path d="M3305 2429 c3 -4 18 -9 34 -11 17 -2 28 -1 26 3 -3 4 -18 9 -34 11
-17 2 -28 1 -26 -3z"/>
<path d="M3488 2433 c6 -2 18 -2 25 0 6 3 1 5 -13 5 -14 0 -19 -2 -12 -5z"/>
<path d="M3382 2419 c3 -8 20 -23 39 -33 l34 -20 -20 23 c-26 30 -59 48 -53
30z"/>
<path d="M3267 2406 c-4 -9 0 -28 9 -42 21 -31 26 -31 14 1 -6 16 -6 25 0 25
6 0 10 -7 10 -15 0 -8 9 -15 20 -15 l20 0 -20 20 c-11 11 -24 20 -29 20 -5 0
-11 5 -13 12 -3 7 -7 5 -11 -6z"/>
<path d="M1698 2368 c-2 -24 -12 -38 -37 -55 -19 -13 -29 -23 -23 -23 6 0 24
12 41 26 26 21 34 24 46 14 18 -15 10 -30 -15 -30 -10 0 -21 -4 -25 -10 -6
-10 15 -50 28 -50 4 0 5 5 2 10 -6 9 8 14 28 11 4 0 7 3 7 9 0 5 6 7 14 4 9
-3 1 20 -20 60 -20 36 -37 66 -39 66 -2 0 -5 -14 -7 -32z"/>
<path d="M3320 2390 c0 -5 5 -10 11 -10 5 0 7 5 4 10 -3 6 -8 10 -11 10 -2 0
-4 -4 -4 -10z"/>
<path d="M1500 2351 c0 -6 4 -13 10 -16 6 -3 7 1 4 9 -7 18 -14 21 -14 7z"/>
<path d="M3219 2287 c-16 -16 -26 -33 -23 -38 3 -5 0 -9 -5 -9 -6 0 -11 -6
-11 -13 0 -7 -9 -18 -20 -25 -11 -7 -20 -17 -20 -22 0 -6 18 1 40 15 26 17 56
26 87 26 30 1 37 4 21 6 -21 3 -28 10 -28 26 0 20 0 20 14 2 13 -18 14 -18 9
8 -3 15 -9 24 -14 21 -12 -7 -11 10 1 22 7 7 5 11 -6 11 -9 0 -30 -14 -45 -30z"/>
<path d="M1540 2297 c0 -9 4 -18 9 -21 5 -4 8 1 7 9 -3 21 -16 31 -16 12z"/>
<path d="M3290 2300 c0 -5 5 -10 11 -10 5 0 7 5 4 10 -3 6 -8 10 -11 10 -2 0
-4 -4 -4 -10z"/>
<path d="M1570 2281 c0 -5 9 -7 20 -4 11 3 20 7 20 9 0 2 -9 4 -20 4 -11 0
-20 -4 -20 -9z"/>
<path d="M1773 2245 c0 -8 5 -11 11 -8 6 4 5 0 -2 -9 -11 -14 -10 -17 6 -22
21 -7 68 -53 61 -60 -3 -3 -24 0 -47 6 -23 6 -50 7 -59 3 -10 -5 -22 -8 -28
-7 -5 1 -18 -10 -28 -23 -17 -24 -17 -24 5 -16 13 5 22 13 21 18 -1 4 24 7 55
6 98 -3 95 -1 89 -50 -6 -56 -44 -112 -79 -120 -16 -3 -28 -10 -28 -15 0 -14
53 0 66 17 6 8 13 12 16 9 10 -10 38 65 38 103 1 37 1 38 18 17 10 -11 28 -23
40 -26 22 -6 22 -5 -5 21 -15 14 -53 59 -83 99 -56 74 -67 83 -67 57z"/>
<path d="M1633 2220 c-13 -5 -23 -14 -23 -19 0 -7 9 -6 25 1 14 6 25 15 25 20
0 9 2 9 -27 -2z"/>
<path d="M1698 2223 c12 -2 32 -2 45 0 12 2 2 4 -23 4 -25 0 -35 -2 -22 -4z"/>
<path d="M3403 2173 c-10 -4 -9 -11 2 -33 8 -16 15 -39 15 -52 0 -13 5 -30 10
-38 7 -10 9 5 6 48 -4 65 -12 83 -33 75z"/>
<path d="M1562 2165 c4 -4 1 -17 -7 -29 -17 -24 -21 -106 -5 -90 6 6 12 29 13
52 0 22 5 38 9 36 4 -3 8 2 8 10 0 8 -6 18 -12 22 -7 4 -10 4 -6 -1z"/>
<path d="M3120 2135 c0 -8 6 -15 13 -15 6 0 22 -17 35 -38 20 -33 116 -101
127 -90 6 6 -85 97 -116 115 -16 10 -29 20 -29 24 0 4 -7 9 -15 13 -9 3 -15 0
-15 -9z"/>
<path d="M3173 2143 c9 -2 25 -2 35 0 9 3 1 5 -18 5 -19 0 -27 -2 -17 -5z"/>
<path d="M1776 2064 c-63 -58 -64 -62 -13 -38 30 14 85 79 76 88 -2 3 -30 -20
-63 -50z"/>
<path d="M3308 2114 c-4 -3 5 -28 19 -56 29 -57 37 -59 22 -2 -11 41 -31 69
-41 58z"/>
<path d="M3069 2106 c-1 -3 -2 -9 -3 -13 -1 -5 -5 -14 -10 -21 -4 -7 -6 -15
-3 -18 2 -3 12 7 21 20 9 15 12 27 6 31 -6 3 -11 4 -11 1z"/>
<path d="M3115 2080 c-3 -5 -1 -10 4 -10 6 0 11 5 11 10 0 6 -2 10 -4 10 -3 0
-8 -4 -11 -10z"/>
<path d="M1631 2036 c-9 -11 -9 -16 1 -22 7 -4 10 -4 6 1 -4 4 -3 14 3 22 6 7
9 13 6 13 -2 0 -10 -6 -16 -14z"/>
<path d="M1961 2043 c1 -5 1 -17 0 -28 -1 -17 -3 -18 -12 -5 -8 12 -9 11 -6
-5 2 -11 9 -19 15 -17 9 1 7 -6 -3 -22 -15 -22 -14 -27 12 -82 15 -32 34 -60
41 -62 11 -4 12 0 2 18 -26 48 -30 80 -13 100 17 19 17 19 52 -2 53 -31 56
-35 40 -55 -13 -17 -13 -17 4 -4 18 14 19 12 13 -35 -4 -34 -3 -40 3 -19 4 17
14 42 22 57 14 27 16 27 37 12 13 -9 22 -26 23 -42 0 -24 1 -25 9 -7 l9 20 2
-20 c1 -11 2 -27 1 -35 0 -12 2 -11 12 3 18 24 26 21 27 -10 0 -25 1 -26 9 -8
5 11 9 16 10 10 1 -5 6 1 11 14 11 28 -2 42 -32 34 -11 -3 -19 0 -19 7 0 29
-120 108 -142 94 -5 -3 -25 10 -44 31 -26 26 -39 33 -48 26 -13 -11 -26 -5
-26 11 0 5 6 6 13 2 8 -5 8 -2 -2 9 -14 18 -22 22 -20 10z"/>
<path d="M3061 2023 c-1 -23 -21 -33 -21 -12 0 8 -5 7 -15 -1 -9 -7 -12 -16
-7 -19 4 -3 14 -20 21 -38 13 -32 46 -57 34 -26 -5 12 -3 14 7 8 10 -6 11 -4
4 6 -5 8 -11 34 -15 59 -3 25 -7 35 -8 23z"/>
<path d="M3126 2011 c-10 -15 40 -59 80 -70 49 -14 57 -6 13 13 -48 21 -90 51
-82 59 3 4 4 7 0 7 -3 0 -8 -4 -11 -9z"/>
<path d="M3350 1986 c0 -8 4 -17 9 -20 5 -4 7 3 4 14 -6 23 -13 26 -13 6z"/>
<path d="M1536 1968 c-3 -13 -6 -36 -6 -51 0 -16 -5 -37 -11 -49 -6 -11 -8
-22 -6 -25 12 -11 35 56 35 100 0 52 -3 58 -12 25z"/>
<path d="M2933 1978 c-24 -32 -26 -40 -5 -29 21 11 38 41 23 41 -5 0 -13 -6
-18 -12z"/>
<path d="M3435 1968 c-10 -25 14 -115 32 -122 12 -5 13 -2 8 11 -5 10 -14 43
-20 73 -9 39 -15 50 -20 38z"/>
<path d="M2885 1940 c-3 -5 -1 -10 4 -10 6 0 11 5 11 10 0 6 -2 10 -4 10 -3 0
-8 -4 -11 -10z"/>
<path d="M2805 1917 c-11 -6 -26 -12 -34 -13 -8 -2 -17 -8 -21 -14 -4 -6 -15
-8 -26 -4 -17 6 -17 5 -4 -7 8 -8 14 -13 12 -12 -2 1 -10 -3 -16 -9 -9 -9 -10
-22 -2 -50 7 -28 7 -47 -2 -71 l-12 -32 20 25 c11 14 20 38 20 54 l0 29 23
-21 c30 -28 52 -30 37 -3 -13 25 -13 41 0 21 7 -11 10 -7 10 18 0 18 5 42 11
53 16 32 8 50 -16 36z"/>
<path d="M2982 1910 c0 -14 2 -19 5 -12 2 6 2 18 0 25 -3 6 -5 1 -5 -13z"/>
<path d="M2850 1907 c0 -8 7 -17 15 -21 8 -3 15 -1 15 5 0 18 22 -2 36 -35
l15 -31 -6 30 c-6 25 -26 48 -45 50 -3 0 -11 4 -17 8 -8 5 -13 3 -13 -6z"/>
<path d="M2210 1900 c8 -5 20 -10 25 -10 6 0 3 5 -5 10 -8 5 -19 10 -25 10 -5
0 -3 -5 5 -10z"/>
<path d="M1871 1884 c-13 -9 -34 -16 -47 -16 -13 0 -26 -4 -29 -8 -3 -4 -17
-6 -32 -5 -16 2 -56 6 -90 9 -35 4 -80 3 -100 -1 -35 -7 -32 -8 37 -14 41 -4
98 -10 125 -14 32 -4 61 -2 80 6 17 7 32 12 35 11 3 0 17 8 30 18 31 23 22 35
-9 14z"/>
<path d="M2260 1883 c8 -3 18 -10 21 -16 4 -5 13 -6 20 -2 9 6 8 10 -7 16 -10
4 -26 8 -34 8 -13 -1 -13 -1 0 -6z"/>
<path d="M2340 1860 c12 -8 11 -10 -7 -10 -26 0 -32 -17 -29 -87 1 -36 10 -63
29 -92 15 -23 24 -41 20 -41 -18 0 -62 52 -74 87 -10 32 -13 35 -20 18 -4 -11
-8 -23 -8 -28 -2 -13 53 -63 99 -92 25 -15 60 -41 79 -59 31 -29 33 -29 21 -6
-7 14 -35 49 -61 78 -79 86 -78 159 1 200 24 12 54 22 66 22 20 0 21 -4 17
-44 -3 -26 0 -53 8 -67 7 -13 12 -30 11 -37 -2 -6 2 -20 7 -30 8 -12 10 10 8
78 l-2 95 42 -1 c45 -1 101 -32 123 -68 11 -18 11 -19 -1 -9 -12 9 -14 4 -16
-32 -1 -24 -7 -54 -13 -67 -11 -22 -10 -22 4 -4 9 11 16 28 16 38 0 10 5 17
11 15 17 -3 30 52 24 100 -5 34 -11 42 -32 48 -14 3 -29 3 -32 -2 -8 -10 -271
-11 -271 0 0 4 -8 7 -17 7 -15 0 -16 -2 -3 -10z m-23 -52 c-3 -8 -6 -5 -6 6
-1 11 2 17 5 13 3 -3 4 -12 1 -19z"/>
<path d="M2965 1839 c-12 -22 -13 -30 -4 -27 20 7 42 45 30 52 -6 4 -17 -7
-26 -25z"/>
<path d="M3230 1850 c-8 -5 -31 -7 -50 -5 -35 5 -35 5 -7 -6 34 -13 149 -3
126 12 -18 11 -50 11 -69 -1z"/>
<path d="M3388 1853 c12 -2 30 -2 40 0 9 3 -1 5 -23 4 -22 0 -30 -2 -17 -4z"/>
<path d="M2560 1759 c0 -5 5 -7 10 -4 6 3 10 8 10 11 0 2 -4 4 -10 4 -5 0 -10
-5 -10 -11z"/>
<path d="M2921 1754 c0 -11 3 -14 6 -6 3 7 2 16 -1 19 -3 4 -6 -2 -5 -13z"/>
<path d="M2055 1751 c-7 -12 12 -24 25 -16 11 7 4 25 -10 25 -5 0 -11 -4 -15
-9z"/>
<path d="M2425 1690 c-3 -5 -1 -10 4 -10 6 0 11 5 11 10 0 6 -2 10 -4 10 -3 0
-8 -4 -11 -10z"/>
<path d="M2553 1670 c-13 -35 -4 -40 15 -9 8 12 10 25 5 30 -5 5 -14 -4 -20
-21z"/>
<path d="M2681 1671 c-18 -17 -38 -31 -45 -31 -8 0 -43 -32 -80 -70 -42 -45
-71 -68 -79 -64 -7 5 -7 1 2 -9 13 -16 17 -14 55 26 23 24 71 64 107 90 60 42
87 72 75 84 -2 2 -18 -9 -35 -26z"/>
<path d="M3283 1360 c-15 -6 -21 -15 -17 -25 6 -14 8 -13 21 2 13 16 14 15 9
-17 l-6 -35 30 35 c16 19 30 38 30 43 0 10 -40 8 -67 -3z"/>
<path d="M3696 1345 c-9 -23 -8 -25 9 -25 17 0 19 9 6 28 -7 11 -10 10 -15 -3z"/>
<path d="M3078 1343 c-18 -4 -36 -49 -25 -60 8 -7 97 45 97 57 0 10 -40 12
-72 3z"/>
<path d="M3197 1301 c-21 -35 -21 -42 -3 -35 13 5 31 52 23 60 -1 2 -11 -10
-20 -25z"/>
<path d="M3475 1320 c3 -5 8 -10 11 -10 2 0 4 5 4 10 0 6 -5 10 -11 10 -5 0
-7 -4 -4 -10z"/>
<path d="M3666 1284 c-3 -9 -6 -23 -6 -31 0 -14 3 -14 20 2 24 21 25 31 6 38
-8 3 -17 -1 -20 -9z"/>
<path d="M1340 1335 c0 -8 5 -15 10 -15 6 0 10 7 10 15 0 8 -4 15 -10 15 -5 0
-10 -7 -10 -15z"/>
<path d="M1314 1287 c-3 -9 -4 -23 -2 -33 3 -14 5 -14 21 3 16 18 16 22 2 33
-12 10 -16 9 -21 -3z"/>
<path d="M2060 1244 c0 -14 3 -14 15 -4 8 7 15 14 15 16 0 2 -7 4 -15 4 -8 0
-15 -7 -15 -16z"/>
<path d="M2406 1343 c-11 -11 -6 -23 9 -23 8 0 15 4 15 9 0 13 -16 22 -24 14z"/>
<path d="M2376 1284 c-3 -9 -6 -23 -6 -31 0 -14 3 -14 20 2 24 21 25 31 6 38
-8 3 -17 -1 -20 -9z"/>
<path d="M2787 1343 c-11 -10 -8 -20 8 -27 10 -4 15 1 15 14 0 20 -11 26 -23
13z"/>
<path d="M2655 1320 c3 -5 8 -10 11 -10 2 0 4 5 4 10 0 6 -5 10 -11 10 -5 0
-7 -4 -4 -10z"/>
<path d="M2755 1273 c-8 -33 3 -43 21 -19 18 25 18 32 0 39 -9 4 -16 -3 -21
-20z"/>
</g>
</svg>
